<svg width="24" height="24" viewBox="0 0 24 24" fill="none" xmlns="http://www.w3.org/2000/svg">
<path d="M6.99805 8.49902L9.94007 10.2384C11.6552 11.2525 12.3408 11.2525 14.056 10.2384L16.998 8.49902" stroke="black" stroke-width="1.5" stroke-linecap="round" stroke-linejoin="round"/>
<path d="M2.01576 13.4766C2.08114 16.5421 2.11383 18.0749 3.24495 19.2103C4.37608 20.3458 5.95034 20.3853 9.09883 20.4644C11.0393 20.5132 12.9607 20.5132 14.9012 20.4644C18.0497 20.3853 19.6239 20.3458 20.755 19.2103C21.8862 18.0749 21.9189 16.5421 21.9842 13.4766C22.0053 12.4909 22.0053 11.511 21.9842 10.5254C21.9189 7.45984 21.8862 5.92707 20.755 4.79164C19.6239 3.65621 18.0497 3.61666 14.9012 3.53755C12.9607 3.48879 11.0393 3.48879 9.09882 3.53754C5.95033 3.61664 4.37608 3.65619 3.24495 4.79163C2.11383 5.92706 2.08113 7.45983 2.01576 10.5253C1.99474 11.511 1.99474 12.4909 2.01576 13.4766Z" stroke="black" stroke-width="1.5" stroke-linejoin="round"/>
</svg>
