<svg width="20" height="20" viewBox="0 0 20 20" fill="none" xmlns="http://www.w3.org/2000/svg">
<path d="M2.2849 5.81321H2.55858C3.61226 5.81321 4.47435 6.6753 4.47435 7.72897V17.3078C4.47435 18.3615 3.61226 19.2236 2.55858 19.2236H2.2849C1.23123 19.2236 0.369141 18.3615 0.369141 17.3078V7.72897C0.369141 6.6753 1.23123 5.81321 2.2849 5.81321ZM9.94796 0.065918C11.0016 0.065918 11.8637 0.928012 11.8637 1.98168V17.3078C11.8637 18.3615 11.0016 19.2236 9.94796 19.2236C8.89429 19.2236 8.0322 18.3615 8.0322 17.3078V1.98168C8.0322 0.928012 8.89429 0.065918 9.94796 0.065918ZM17.611 11.0131C18.6647 11.0131 19.5268 11.8752 19.5268 12.9289V17.3078C19.5268 18.3615 18.6647 19.2236 17.611 19.2236C16.5573 19.2236 15.6953 18.3615 15.6953 17.3078V12.9289C15.6953 11.8752 16.5573 11.0131 17.611 11.0131Z" fill="#2E2F5F"/>
</svg>
